<svg xmlns="http://www.w3.org/2000/svg" viewBox="0 0 32 32" fill="currentColor">
  <path d="M16.02 3C8.86 3 3.04 8.82 3.04 15.98c0 2.3.6 4.54 1.75 6.51L3 29l6.68-1.75a12.9 12.9 0 0 0 6.34 1.62C23.18 28.87 29 23.05 29 15.89 29 8.74 23.18 3 16.02 3Zm0 23.67c-2.02 0-4-.54-5.73-1.57l-.41-.24-3.96 1.04 1.06-3.86-.27-.43a10.7 10.7 0 0 1-1.63-5.63c0-6.03 4.91-10.94 10.94-10.94 2.92 0 5.67 1.14 7.73 3.2a10.86 10.86 0 0 1 3.21 7.65c0 6.03-4.91 10.78-10.94 10.78Zm6.01-8.19c-.33-.16-1.95-.96-2.25-1.07-.3-.11-.52-.16-.74.16-.22.33-.85 1.07-1.04 1.29-.19.22-.38.25-.71.08-.33-.16-1.39-.51-2.65-1.63-.98-.87-1.64-1.95-1.83-2.28-.19-.33-.02-.51.14-.67.15-.15.33-.38.49-.57.16-.19.22-.33.33-.55.11-.22.05-.41-.03-.57-.08-.16-.74-1.78-1.01-2.44-.27-.64-.54-.55-.74-.56h-.63c-.22 0-.57.08-.87.41-.3.33-1.14 1.11-1.14 2.71s1.17 3.14 1.33 3.36c.16.22 2.3 3.51 5.58 4.92.78.34 1.39.54 1.86.69.78.25 1.49.21 2.05.13.63-.09 1.95-.8 2.23-1.57.27-.77.27-1.43.19-1.57-.08-.14-.3-.22-.63-.38Z"></path>
</svg>